# xmcd
#
# Track frame offsets:
#	150
#	21835
#	35981
#	51118
#	65695
#	78195
#	88540
#	102135
#	114868
#	128307
#	143948
#	152581
#	168486
#	183839
#	197916
#	217281
#	232420
#
# Disc length: 3308 seconds
#
# Revision: 0
# Processed by: cddbd v1.5.1PL2 Copyright (c) Steve Scherf et al.
# Submitted via: EasyCDDAExtractor 9.0.0.1
#
DISCID=ec0cea11
DTITLE=country - compil
DYEAR=1900
DGENRE=Country
TTITLE0=Sweet Home Alabama
TTITLE1=Splish Splash
TTITLE2=Jambalaya (on the Bayou)(1)
TTITLE3=doctor doctor
TTITLE4=Crazy Little Thing Called Love
TTITLE5=All Shock Up
TTITLE6=burning love
TTITLE7=nancy hays come dance with me
TTITLE8=sweet sweet smile
TTITLE9=let's put the western back in
TTITLE10=i got stumy
TTITLE11=piste 5
TTITLE12=piste 6
TTITLE13=oh honesone me
TTITLE14=piste 8
TTITLE15=piste 9
TTITLE16=sugar
EXTD=
EXTT0=
EXTT1=
EXTT2=
EXTT3=
EXTT4=
EXTT5=
EXTT6=
EXTT7=
EXTT8=
EXTT9=
EXTT10=
EXTT11=
EXTT12=
EXTT13=
EXTT14=
EXTT15=
EXTT16=
PLAYORDER=
